<svg xmlns="http://www.w3.org/2000/svg" version="1.1" xmlns:xlink="http://www.w3.org/1999/xlink" xmlns:svgjs="http://svgjs.dev/svgjs" width="128" height="128" viewBox="0 0 128 128"><g transform="matrix(0.8046875,0,0,0.8046875,12.506335372881338,23.116071013775766)"><svg viewBox="0 0 59 47" data-background-color="#3b4354" preserveAspectRatio="xMidYMid meet" height="101" width="128" xmlns="http://www.w3.org/2000/svg" xmlns:xlink="http://www.w3.org/1999/xlink"><defs></defs><g id="tight-bounds" transform="matrix(1,0,0,1,-0.0036289999999894462,0.14296037500000125)"><svg viewBox="0 0 59.00725799999999 46.71407924999999" height="46.71407924999999" width="59.00725799999999"><g><svg viewBox="0 0 59.00725799999999 46.71407924999999" height="46.71407924999999" width="59.00725799999999"><g><svg viewBox="0 0 59.00725799999999 46.71407924999999" height="46.71407924999999" width="59.00725799999999"><g><svg viewBox="0 0 59.00725799999999 46.71407924999999" height="46.71407924999999" width="59.00725799999999"><g><svg viewBox="0 0 59.00725799999999 46.71407924999999" height="46.71407924999999" width="59.00725799999999"><g><svg viewBox="0 0 59.00725799999999 46.71407924999999" height="46.71407924999999" width="59.00725799999999"><g><svg viewBox="0 0 59.00725799999999 46.71407924999999" height="46.71407924999999" width="59.00725799999999"><g><svg xmlns="http://www.w3.org/2000/svg" xmlns:xlink="http://www.w3.org/1999/xlink" version="1.1" x="0" y="0" viewBox="0 10 96 76" enable-background="new 0 0 96 96" xml:space="preserve" height="46.71407924999999" width="59.00725799999999" class="icon-icon-0" data-fill-palette-color="accent" id="icon-0"><path d="M40 48.392L58 38 40 27.608V48.392z" fill="#661ae6" data-fill-palette-color="accent"></path><path d="M94 10H2c-1.104 0-2 0.9-2 2v52c0 1.1 0.896 2 2 2h35.56c-0.9 3.04-6.06 9.712-19.56 9.712-1.104 0-2 0.899-2 2V84c0 1.1 0.896 2 2 2h60c1.1 0 2-0.9 2-2v-6.288c0-1.101-0.9-2-2-2-13.5 0-18.664-6.672-19.564-9.712H94c1.1 0 2-0.9 2-2V12C96 10.9 95.1 10 94 10zM63 39.736l-24 13.86c-0.308 0.172-0.656 0.26-1 0.26s-0.692-0.088-1-0.26c-0.62-0.359-1-1.023-1-1.74V24.14c0-0.716 0.38-1.376 1-1.732 0.616-0.36 1.384-0.36 2 0L63 36.26c0.616 0.36 1 1.021 1 1.74C64 38.716 63.616 39.376 63 39.736z" fill="#661ae6" data-fill-palette-color="accent"></path></svg><g></g></g></svg></g></svg></g></svg></g></svg></g><g></g></svg></g></svg></g></svg><rect width="59.00725799999999" height="46.71407924999999" fill="none" stroke="none" visibility="hidden"></rect></g></svg></g></svg>